<mxfile host="app.diagrams.net" modified="2022-07-18T10:17:04.148Z" agent="5.0 (Windows NT 10.0; Win64; x64) AppleWebKit/537.36 (KHTML, like Gecko) Chrome/103.0.5060.114 Safari/537.36" etag="QJpaT2mt_mzmXjYP8ICi" version="20.1.1" type="github">
  <diagram id="KuURgz--QrR20P7z3eVJ" name="Page-1">
    <mxGraphModel dx="3407" dy="1573" grid="1" gridSize="10" guides="1" tooltips="1" connect="1" arrows="1" fold="1" page="1" pageScale="1" pageWidth="2336" pageHeight="1654" background="#283618" math="0" shadow="0">
      <root>
        <mxCell id="0" />
        <mxCell id="1" parent="0" />
        <mxCell id="yvTYw81633kKv_xBMHwx-22" style="edgeStyle=orthogonalEdgeStyle;curved=0;rounded=1;sketch=0;orthogonalLoop=1;jettySize=auto;html=1;exitX=1;exitY=0.5;exitDx=0;exitDy=0;entryX=0;entryY=0.5;entryDx=0;entryDy=0;fontFamily=Tahoma;fontSize=26;fontColor=#FEFAE0;strokeColor=#DDA15E;strokeWidth=5;fillColor=#BC6C25;" edge="1" parent="1" source="yvTYw81633kKv_xBMHwx-1" target="yvTYw81633kKv_xBMHwx-7">
          <mxGeometry relative="1" as="geometry" />
        </mxCell>
        <mxCell id="yvTYw81633kKv_xBMHwx-23" style="edgeStyle=orthogonalEdgeStyle;curved=0;rounded=1;sketch=0;orthogonalLoop=1;jettySize=auto;html=1;exitX=1;exitY=0.5;exitDx=0;exitDy=0;entryX=0;entryY=0.5;entryDx=0;entryDy=0;fontFamily=Tahoma;fontSize=26;fontColor=#FEFAE0;strokeColor=#DDA15E;strokeWidth=5;fillColor=#BC6C25;" edge="1" parent="1" source="yvTYw81633kKv_xBMHwx-1" target="yvTYw81633kKv_xBMHwx-5">
          <mxGeometry relative="1" as="geometry" />
        </mxCell>
        <mxCell id="yvTYw81633kKv_xBMHwx-24" style="edgeStyle=orthogonalEdgeStyle;curved=0;rounded=1;sketch=0;orthogonalLoop=1;jettySize=auto;html=1;exitX=1;exitY=0.5;exitDx=0;exitDy=0;entryX=0;entryY=0.5;entryDx=0;entryDy=0;fontFamily=Tahoma;fontSize=26;fontColor=#FEFAE0;strokeColor=#DDA15E;strokeWidth=5;fillColor=#BC6C25;" edge="1" parent="1" source="yvTYw81633kKv_xBMHwx-1" target="yvTYw81633kKv_xBMHwx-3">
          <mxGeometry relative="1" as="geometry" />
        </mxCell>
        <mxCell id="yvTYw81633kKv_xBMHwx-27" style="edgeStyle=orthogonalEdgeStyle;curved=0;rounded=1;sketch=0;orthogonalLoop=1;jettySize=auto;html=1;exitX=1;exitY=0.5;exitDx=0;exitDy=0;entryX=0;entryY=0.5;entryDx=0;entryDy=0;fontFamily=Tahoma;fontSize=26;fontColor=#FEFAE0;strokeColor=#DDA15E;strokeWidth=5;fillColor=#BC6C25;" edge="1" parent="1" source="yvTYw81633kKv_xBMHwx-1" target="yvTYw81633kKv_xBMHwx-11">
          <mxGeometry relative="1" as="geometry" />
        </mxCell>
        <mxCell id="yvTYw81633kKv_xBMHwx-28" style="edgeStyle=orthogonalEdgeStyle;curved=0;rounded=1;sketch=0;orthogonalLoop=1;jettySize=auto;html=1;exitX=1;exitY=0.5;exitDx=0;exitDy=0;entryX=0;entryY=0.5;entryDx=0;entryDy=0;fontFamily=Tahoma;fontSize=26;fontColor=#FEFAE0;strokeColor=#DDA15E;strokeWidth=5;fillColor=#BC6C25;" edge="1" parent="1" source="yvTYw81633kKv_xBMHwx-1" target="yvTYw81633kKv_xBMHwx-9">
          <mxGeometry relative="1" as="geometry" />
        </mxCell>
        <mxCell id="yvTYw81633kKv_xBMHwx-30" style="edgeStyle=orthogonalEdgeStyle;curved=0;rounded=1;sketch=0;orthogonalLoop=1;jettySize=auto;html=1;exitX=1;exitY=0.5;exitDx=0;exitDy=0;entryX=0;entryY=0.5;entryDx=0;entryDy=0;fontFamily=Tahoma;fontSize=26;fontColor=#FEFAE0;strokeColor=#DDA15E;strokeWidth=5;fillColor=#BC6C25;" edge="1" parent="1" source="yvTYw81633kKv_xBMHwx-1" target="yvTYw81633kKv_xBMHwx-16">
          <mxGeometry relative="1" as="geometry" />
        </mxCell>
        <mxCell id="yvTYw81633kKv_xBMHwx-32" style="edgeStyle=orthogonalEdgeStyle;curved=0;rounded=1;sketch=0;orthogonalLoop=1;jettySize=auto;html=1;exitX=1;exitY=0.5;exitDx=0;exitDy=0;entryX=0;entryY=0.5;entryDx=0;entryDy=0;fontFamily=Tahoma;fontSize=26;fontColor=#FEFAE0;strokeColor=#DDA15E;strokeWidth=5;fillColor=#BC6C25;" edge="1" parent="1" source="yvTYw81633kKv_xBMHwx-1" target="yvTYw81633kKv_xBMHwx-18">
          <mxGeometry relative="1" as="geometry" />
        </mxCell>
        <mxCell id="yvTYw81633kKv_xBMHwx-63" style="edgeStyle=orthogonalEdgeStyle;curved=0;rounded=1;sketch=0;orthogonalLoop=1;jettySize=auto;html=1;exitX=1;exitY=0.5;exitDx=0;exitDy=0;entryX=0;entryY=0.5;entryDx=0;entryDy=0;fontFamily=Tahoma;fontSize=26;fontColor=#FEFAE0;strokeColor=#DDA15E;strokeWidth=5;fillColor=#BC6C25;" edge="1" parent="1" source="yvTYw81633kKv_xBMHwx-1" target="yvTYw81633kKv_xBMHwx-61">
          <mxGeometry relative="1" as="geometry" />
        </mxCell>
        <mxCell id="yvTYw81633kKv_xBMHwx-1" value="" style="rounded=1;whiteSpace=wrap;html=1;sketch=0;fontColor=#FEFAE0;strokeColor=#DDA15E;fillColor=#BC6C25;" vertex="1" parent="1">
          <mxGeometry x="404" y="679" width="190" height="110" as="geometry" />
        </mxCell>
        <mxCell id="yvTYw81633kKv_xBMHwx-2" value="&lt;font face=&quot;Tahoma&quot; style=&quot;font-size: 35px;&quot;&gt;&lt;b&gt;CPM&lt;/b&gt;&lt;/font&gt;" style="text;html=1;strokeColor=none;fillColor=none;align=center;verticalAlign=middle;whiteSpace=wrap;rounded=0;sketch=0;fontColor=#FEFAE0;" vertex="1" parent="1">
          <mxGeometry x="469" y="719" width="60" height="30" as="geometry" />
        </mxCell>
        <mxCell id="yvTYw81633kKv_xBMHwx-3" value="" style="rounded=1;whiteSpace=wrap;html=1;sketch=0;fontFamily=Tahoma;fontSize=35;fontColor=#FEFAE0;strokeColor=#DDA15E;fillColor=#BC6C25;" vertex="1" parent="1">
          <mxGeometry x="764" y="389" width="210" height="110" as="geometry" />
        </mxCell>
        <mxCell id="yvTYw81633kKv_xBMHwx-4" value="&lt;b&gt;&lt;font style=&quot;font-size: 26px;&quot;&gt;Air bag Fit&lt;/font&gt;&lt;/b&gt;" style="text;html=1;strokeColor=none;fillColor=none;align=center;verticalAlign=middle;whiteSpace=wrap;rounded=0;sketch=0;fontFamily=Tahoma;fontSize=35;fontColor=#FEFAE0;" vertex="1" parent="1">
          <mxGeometry x="771.5" y="389" width="195" height="110" as="geometry" />
        </mxCell>
        <mxCell id="yvTYw81633kKv_xBMHwx-45" style="edgeStyle=orthogonalEdgeStyle;curved=0;rounded=1;sketch=0;orthogonalLoop=1;jettySize=auto;html=1;exitX=1;exitY=0.5;exitDx=0;exitDy=0;entryX=0;entryY=0.5;entryDx=0;entryDy=0;fontFamily=Tahoma;fontSize=26;fontColor=#FEFAE0;strokeColor=#DDA15E;strokeWidth=5;fillColor=#BC6C25;" edge="1" parent="1" source="yvTYw81633kKv_xBMHwx-5" target="yvTYw81633kKv_xBMHwx-44">
          <mxGeometry relative="1" as="geometry" />
        </mxCell>
        <mxCell id="yvTYw81633kKv_xBMHwx-5" value="" style="rounded=1;whiteSpace=wrap;html=1;sketch=0;fontFamily=Tahoma;fontSize=35;fontColor=#FEFAE0;strokeColor=#DDA15E;fillColor=#BC6C25;" vertex="1" parent="1">
          <mxGeometry x="764" y="529" width="210" height="110" as="geometry" />
        </mxCell>
        <mxCell id="yvTYw81633kKv_xBMHwx-6" value="&lt;b&gt;&lt;font style=&quot;font-size: 26px;&quot;&gt;Harness&lt;/font&gt;&lt;/b&gt;" style="text;html=1;strokeColor=none;fillColor=none;align=center;verticalAlign=middle;whiteSpace=wrap;rounded=0;sketch=0;fontFamily=Tahoma;fontSize=35;fontColor=#FEFAE0;" vertex="1" parent="1">
          <mxGeometry x="771.5" y="529" width="195" height="110" as="geometry" />
        </mxCell>
        <mxCell id="yvTYw81633kKv_xBMHwx-42" style="edgeStyle=orthogonalEdgeStyle;curved=0;rounded=1;sketch=0;orthogonalLoop=1;jettySize=auto;html=1;exitX=1;exitY=0.5;exitDx=0;exitDy=0;entryX=0;entryY=0.5;entryDx=0;entryDy=0;fontFamily=Tahoma;fontSize=26;fontColor=#FEFAE0;strokeColor=#DDA15E;strokeWidth=5;fillColor=#BC6C25;" edge="1" parent="1" source="yvTYw81633kKv_xBMHwx-7" target="yvTYw81633kKv_xBMHwx-41">
          <mxGeometry relative="1" as="geometry" />
        </mxCell>
        <mxCell id="yvTYw81633kKv_xBMHwx-7" value="" style="rounded=1;whiteSpace=wrap;html=1;sketch=0;fontFamily=Tahoma;fontSize=35;fontColor=#FEFAE0;strokeColor=#DDA15E;fillColor=#BC6C25;" vertex="1" parent="1">
          <mxGeometry x="761.5" y="669" width="230" height="130" as="geometry" />
        </mxCell>
        <mxCell id="yvTYw81633kKv_xBMHwx-8" value="&lt;b&gt;&lt;font style=&quot;font-size: 26px;&quot;&gt;Combi wire &amp;amp; Switch&amp;nbsp;&lt;/font&gt;&lt;/b&gt;" style="text;html=1;strokeColor=none;fillColor=none;align=center;verticalAlign=middle;whiteSpace=wrap;rounded=0;sketch=0;fontFamily=Tahoma;fontSize=35;fontColor=#FEFAE0;" vertex="1" parent="1">
          <mxGeometry x="795.25" y="689" width="162.5" height="90" as="geometry" />
        </mxCell>
        <mxCell id="yvTYw81633kKv_xBMHwx-9" value="" style="rounded=1;whiteSpace=wrap;html=1;sketch=0;fontFamily=Tahoma;fontSize=35;fontColor=#FEFAE0;strokeColor=#DDA15E;fillColor=#BC6C25;" vertex="1" parent="1">
          <mxGeometry x="764" y="829" width="280" height="160" as="geometry" />
        </mxCell>
        <mxCell id="yvTYw81633kKv_xBMHwx-60" style="edgeStyle=orthogonalEdgeStyle;curved=0;rounded=1;sketch=0;orthogonalLoop=1;jettySize=auto;html=1;exitX=1;exitY=0.5;exitDx=0;exitDy=0;entryX=0;entryY=0.5;entryDx=0;entryDy=0;fontFamily=Tahoma;fontSize=26;fontColor=#FEFAE0;strokeColor=#DDA15E;strokeWidth=5;fillColor=#BC6C25;" edge="1" parent="1" source="yvTYw81633kKv_xBMHwx-10" target="yvTYw81633kKv_xBMHwx-57">
          <mxGeometry relative="1" as="geometry" />
        </mxCell>
        <mxCell id="yvTYw81633kKv_xBMHwx-10" value="&lt;b&gt;&lt;font style=&quot;font-size: 26px;&quot;&gt;PCM&lt;br&gt;(Program control Module)&lt;br&gt;&lt;/font&gt;&lt;/b&gt;" style="text;html=1;strokeColor=none;fillColor=none;align=center;verticalAlign=middle;whiteSpace=wrap;rounded=0;sketch=0;fontFamily=Tahoma;fontSize=35;fontColor=#FEFAE0;" vertex="1" parent="1">
          <mxGeometry x="767.75" y="854" width="272.5" height="110" as="geometry" />
        </mxCell>
        <mxCell id="yvTYw81633kKv_xBMHwx-48" style="edgeStyle=orthogonalEdgeStyle;curved=0;rounded=1;sketch=0;orthogonalLoop=1;jettySize=auto;html=1;exitX=1;exitY=0.5;exitDx=0;exitDy=0;fontFamily=Tahoma;fontSize=26;fontColor=#FEFAE0;strokeColor=#DDA15E;strokeWidth=5;fillColor=#BC6C25;" edge="1" parent="1" source="yvTYw81633kKv_xBMHwx-11" target="yvTYw81633kKv_xBMHwx-46">
          <mxGeometry relative="1" as="geometry" />
        </mxCell>
        <mxCell id="yvTYw81633kKv_xBMHwx-11" value="" style="rounded=1;whiteSpace=wrap;html=1;sketch=0;fontFamily=Tahoma;fontSize=35;fontColor=#FEFAE0;strokeColor=#DDA15E;fillColor=#BC6C25;" vertex="1" parent="1">
          <mxGeometry x="764" y="249" width="210" height="110" as="geometry" />
        </mxCell>
        <mxCell id="yvTYw81633kKv_xBMHwx-12" value="&lt;b&gt;&lt;font style=&quot;font-size: 26px;&quot;&gt;Blower duct&amp;nbsp;&lt;/font&gt;&lt;/b&gt;" style="text;html=1;strokeColor=none;fillColor=none;align=center;verticalAlign=middle;whiteSpace=wrap;rounded=0;sketch=0;fontFamily=Tahoma;fontSize=35;fontColor=#FEFAE0;" vertex="1" parent="1">
          <mxGeometry x="771.5" y="249" width="195" height="110" as="geometry" />
        </mxCell>
        <mxCell id="yvTYw81633kKv_xBMHwx-56" style="edgeStyle=orthogonalEdgeStyle;curved=0;rounded=1;sketch=0;orthogonalLoop=1;jettySize=auto;html=1;exitX=1;exitY=0.5;exitDx=0;exitDy=0;entryX=0;entryY=0.5;entryDx=0;entryDy=0;fontFamily=Tahoma;fontSize=26;fontColor=#FEFAE0;strokeColor=#DDA15E;strokeWidth=5;fillColor=#BC6C25;" edge="1" parent="1" source="yvTYw81633kKv_xBMHwx-15" target="yvTYw81633kKv_xBMHwx-54">
          <mxGeometry relative="1" as="geometry" />
        </mxCell>
        <mxCell id="yvTYw81633kKv_xBMHwx-15" value="" style="shape=image;verticalLabelPosition=bottom;labelBackgroundColor=default;verticalAlign=top;aspect=fixed;imageAspect=0;image=https://www.kirchhoff-automotive.com/fileadmin/_processed_/6/c/csm_PKW_Armaturentafeltraeger_2_1fc3941070.jpg;" vertex="1" parent="1">
          <mxGeometry x="1254" y="1067" width="425.94" height="240" as="geometry" />
        </mxCell>
        <mxCell id="yvTYw81633kKv_xBMHwx-21" style="edgeStyle=orthogonalEdgeStyle;curved=0;rounded=1;sketch=0;orthogonalLoop=1;jettySize=auto;html=1;exitX=1;exitY=0.5;exitDx=0;exitDy=0;entryX=0;entryY=0.5;entryDx=0;entryDy=0;fontFamily=Tahoma;fontSize=26;fontColor=#FEFAE0;strokeColor=#DDA15E;fillColor=#BC6C25;strokeWidth=5;" edge="1" parent="1" source="yvTYw81633kKv_xBMHwx-16" target="yvTYw81633kKv_xBMHwx-15">
          <mxGeometry relative="1" as="geometry" />
        </mxCell>
        <mxCell id="yvTYw81633kKv_xBMHwx-16" value="" style="rounded=1;whiteSpace=wrap;html=1;sketch=0;fontFamily=Tahoma;fontSize=35;fontColor=#FEFAE0;strokeColor=#DDA15E;fillColor=#BC6C25;" vertex="1" parent="1">
          <mxGeometry x="764" y="1029" width="210" height="110" as="geometry" />
        </mxCell>
        <mxCell id="yvTYw81633kKv_xBMHwx-17" value="&lt;b&gt;&lt;font style=&quot;font-size: 26px;&quot;&gt;Steering Member&lt;/font&gt;&lt;/b&gt;" style="text;html=1;strokeColor=none;fillColor=none;align=center;verticalAlign=middle;whiteSpace=wrap;rounded=0;sketch=0;fontFamily=Tahoma;fontSize=35;fontColor=#FEFAE0;" vertex="1" parent="1">
          <mxGeometry x="771.5" y="1029" width="195" height="110" as="geometry" />
        </mxCell>
        <mxCell id="yvTYw81633kKv_xBMHwx-38" style="edgeStyle=orthogonalEdgeStyle;curved=0;rounded=1;sketch=0;orthogonalLoop=1;jettySize=auto;html=1;exitX=1;exitY=0.5;exitDx=0;exitDy=0;fontFamily=Tahoma;fontSize=26;fontColor=#FEFAE0;strokeColor=#DDA15E;strokeWidth=5;fillColor=#BC6C25;entryX=0;entryY=0.5;entryDx=0;entryDy=0;" edge="1" parent="1" source="yvTYw81633kKv_xBMHwx-18" target="yvTYw81633kKv_xBMHwx-37">
          <mxGeometry relative="1" as="geometry" />
        </mxCell>
        <mxCell id="yvTYw81633kKv_xBMHwx-18" value="" style="rounded=1;whiteSpace=wrap;html=1;sketch=0;fontFamily=Tahoma;fontSize=35;fontColor=#FEFAE0;strokeColor=#DDA15E;fillColor=#BC6C25;" vertex="1" parent="1">
          <mxGeometry x="764" y="1167" width="210" height="110" as="geometry" />
        </mxCell>
        <mxCell id="yvTYw81633kKv_xBMHwx-19" value="&lt;span style=&quot;font-size: 26px;&quot;&gt;&lt;b&gt;Steering column&lt;/b&gt;&lt;/span&gt;" style="text;html=1;strokeColor=none;fillColor=none;align=center;verticalAlign=middle;whiteSpace=wrap;rounded=0;sketch=0;fontFamily=Tahoma;fontSize=35;fontColor=#FEFAE0;" vertex="1" parent="1">
          <mxGeometry x="771.5" y="1167" width="195" height="110" as="geometry" />
        </mxCell>
        <mxCell id="yvTYw81633kKv_xBMHwx-37" value="" style="shape=image;verticalLabelPosition=bottom;labelBackgroundColor=default;verticalAlign=top;aspect=fixed;imageAspect=0;image=https://www.nsk.com/company/news/2018/images/0604/a01.jpg;" vertex="1" parent="1">
          <mxGeometry x="1254" y="1329" width="333.33" height="210" as="geometry" />
        </mxCell>
        <mxCell id="yvTYw81633kKv_xBMHwx-50" style="edgeStyle=orthogonalEdgeStyle;curved=0;rounded=1;sketch=0;orthogonalLoop=1;jettySize=auto;html=1;exitX=1;exitY=0.5;exitDx=0;exitDy=0;entryX=0;entryY=0.5;entryDx=0;entryDy=0;fontFamily=Tahoma;fontSize=26;fontColor=#FEFAE0;strokeColor=#DDA15E;strokeWidth=5;fillColor=#BC6C25;" edge="1" parent="1" source="yvTYw81633kKv_xBMHwx-41" target="yvTYw81633kKv_xBMHwx-49">
          <mxGeometry relative="1" as="geometry" />
        </mxCell>
        <mxCell id="yvTYw81633kKv_xBMHwx-41" value="" style="shape=image;verticalLabelPosition=bottom;labelBackgroundColor=default;verticalAlign=top;aspect=fixed;imageAspect=0;image=https://www.shopee365.com/media/catalog/product/cache/a1d6199b8797d1adf27d00b7ce72a9f8/c/o/combination-switch-for-tata-indigo-old-model-ai-440-s8727.jpg;" vertex="1" parent="1">
          <mxGeometry x="1161" y="609" width="220" height="220" as="geometry" />
        </mxCell>
        <mxCell id="yvTYw81633kKv_xBMHwx-44" value="" style="shape=image;verticalLabelPosition=bottom;labelBackgroundColor=default;verticalAlign=top;aspect=fixed;imageAspect=0;image=https://meridiancableassemblies.com/wp-content/uploads/2017/01/110cc-atv-wire-harness-150-53-12.jpg;" vertex="1" parent="1">
          <mxGeometry x="1174" y="349" width="349.51" height="205" as="geometry" />
        </mxCell>
        <mxCell id="yvTYw81633kKv_xBMHwx-46" value="" style="shape=image;verticalLabelPosition=bottom;labelBackgroundColor=default;verticalAlign=top;aspect=fixed;imageAspect=0;image=https://www.researchgate.net/profile/Xu-Wang-112/publication/242246836/figure/fig1/AS:669369545793543@1536601544436/Typical-vehicle-HVAC-system-components-4.png;" vertex="1" parent="1">
          <mxGeometry x="1114" y="39" width="445.71" height="240" as="geometry" />
        </mxCell>
        <mxCell id="yvTYw81633kKv_xBMHwx-49" value="" style="rounded=1;whiteSpace=wrap;html=1;sketch=0;fontFamily=Tahoma;fontSize=26;fontColor=#FEFAE0;strokeColor=#DDA15E;fillColor=#BC6C25;" vertex="1" parent="1">
          <mxGeometry x="1551" y="566.75" width="470" height="334.5" as="geometry" />
        </mxCell>
        <mxCell id="yvTYw81633kKv_xBMHwx-51" value="Combi wire is used for allowing the steering wheel to rotate 360deg with the help of a rotating coil.&amp;nbsp;&lt;br&gt;&lt;br&gt;Combi operating switch is used for operating the head light(On/Off), Windshield wipper, windshield washer.&amp;nbsp;" style="text;html=1;strokeColor=none;fillColor=none;align=left;verticalAlign=middle;whiteSpace=wrap;rounded=0;sketch=0;fontFamily=Tahoma;fontSize=26;fontColor=#FEFAE0;" vertex="1" parent="1">
          <mxGeometry x="1578.5" y="594" width="415" height="280" as="geometry" />
        </mxCell>
        <mxCell id="yvTYw81633kKv_xBMHwx-53" style="edgeStyle=orthogonalEdgeStyle;curved=0;rounded=1;sketch=0;orthogonalLoop=1;jettySize=auto;html=1;exitX=0.5;exitY=1;exitDx=0;exitDy=0;entryX=0;entryY=0.5;entryDx=0;entryDy=0;fontFamily=Tahoma;fontSize=26;fontColor=#FEFAE0;strokeColor=#DDA15E;strokeWidth=5;fillColor=#BC6C25;" edge="1" parent="1" source="yvTYw81633kKv_xBMHwx-52" target="yvTYw81633kKv_xBMHwx-1">
          <mxGeometry relative="1" as="geometry" />
        </mxCell>
        <mxCell id="yvTYw81633kKv_xBMHwx-52" value="" style="shape=image;verticalLabelPosition=bottom;labelBackgroundColor=default;verticalAlign=top;aspect=fixed;imageAspect=0;image=https://www.smrc-automotive.com/wp-content/uploads/2015/12/Kadjar-IP-ovale-web.jpg;" vertex="1" parent="1">
          <mxGeometry x="124" y="399" width="420" height="235.85" as="geometry" />
        </mxCell>
        <mxCell id="yvTYw81633kKv_xBMHwx-54" value="" style="rounded=1;whiteSpace=wrap;html=1;sketch=0;fontFamily=Tahoma;fontSize=26;fontColor=#FEFAE0;strokeColor=#DDA15E;fillColor=#BC6C25;" vertex="1" parent="1">
          <mxGeometry x="1741" y="1093.25" width="470" height="187.5" as="geometry" />
        </mxCell>
        <mxCell id="yvTYw81633kKv_xBMHwx-55" value="Skeleton of Cockpit module(CPM) which works as a support to carry the IP mounting and harnessing which are done on CPM" style="text;html=1;strokeColor=none;fillColor=none;align=left;verticalAlign=middle;whiteSpace=wrap;rounded=0;sketch=0;fontFamily=Tahoma;fontSize=26;fontColor=#FEFAE0;" vertex="1" parent="1">
          <mxGeometry x="1768.5" y="1107.63" width="415" height="150.25" as="geometry" />
        </mxCell>
        <mxCell id="yvTYw81633kKv_xBMHwx-57" value="" style="rounded=1;whiteSpace=wrap;html=1;sketch=0;fontFamily=Tahoma;fontSize=26;fontColor=#FEFAE0;strokeColor=#DDA15E;fillColor=#BC6C25;" vertex="1" parent="1">
          <mxGeometry x="1114" y="862" width="402" height="184.5" as="geometry" />
        </mxCell>
        <mxCell id="yvTYw81633kKv_xBMHwx-58" value="Brain of CPM - controls the conversion of user input from the cockpit control module to electrical signals and sends to ECM.&amp;nbsp;" style="text;html=1;strokeColor=none;fillColor=none;align=left;verticalAlign=middle;whiteSpace=wrap;rounded=0;sketch=0;fontFamily=Tahoma;fontSize=26;fontColor=#FEFAE0;" vertex="1" parent="1">
          <mxGeometry x="1137.75" y="885.1899999999999" width="354.5" height="138.12" as="geometry" />
        </mxCell>
        <mxCell id="yvTYw81633kKv_xBMHwx-67" style="edgeStyle=orthogonalEdgeStyle;curved=0;rounded=1;sketch=0;orthogonalLoop=1;jettySize=auto;html=1;exitX=0.5;exitY=1;exitDx=0;exitDy=0;fontFamily=Tahoma;fontSize=26;fontColor=#FEFAE0;strokeColor=#DDA15E;strokeWidth=5;fillColor=#BC6C25;" edge="1" parent="1" source="yvTYw81633kKv_xBMHwx-61" target="yvTYw81633kKv_xBMHwx-64">
          <mxGeometry relative="1" as="geometry" />
        </mxCell>
        <mxCell id="yvTYw81633kKv_xBMHwx-61" value="" style="rounded=1;whiteSpace=wrap;html=1;sketch=0;fontFamily=Tahoma;fontSize=35;fontColor=#FEFAE0;strokeColor=#DDA15E;fillColor=#BC6C25;" vertex="1" parent="1">
          <mxGeometry x="764" y="1322" width="210" height="110" as="geometry" />
        </mxCell>
        <mxCell id="yvTYw81633kKv_xBMHwx-62" value="&lt;span style=&quot;font-size: 26px;&quot;&gt;&lt;b&gt;SONAR&amp;nbsp;&lt;br&gt;buzzer&lt;/b&gt;&lt;/span&gt;" style="text;html=1;strokeColor=none;fillColor=none;align=center;verticalAlign=middle;whiteSpace=wrap;rounded=0;sketch=0;fontFamily=Tahoma;fontSize=35;fontColor=#FEFAE0;" vertex="1" parent="1">
          <mxGeometry x="789.25" y="1332" width="159.5" height="90" as="geometry" />
        </mxCell>
        <mxCell id="yvTYw81633kKv_xBMHwx-64" value="" style="rounded=1;whiteSpace=wrap;html=1;sketch=0;fontFamily=Tahoma;fontSize=26;fontColor=#FEFAE0;strokeColor=#DDA15E;fillColor=#BC6C25;" vertex="1" parent="1">
          <mxGeometry x="674.5" y="1476" width="389" height="154" as="geometry" />
        </mxCell>
        <mxCell id="yvTYw81633kKv_xBMHwx-65" value="Produces a alarming sound when the car comes closer to any obstacle during the reverse gear.&amp;nbsp;" style="text;html=1;strokeColor=none;fillColor=none;align=left;verticalAlign=middle;whiteSpace=wrap;rounded=0;sketch=0;fontFamily=Tahoma;fontSize=26;fontColor=#FEFAE0;" vertex="1" parent="1">
          <mxGeometry x="703.88" y="1497.94" width="330.25" height="110.12" as="geometry" />
        </mxCell>
      </root>
    </mxGraphModel>
  </diagram>
</mxfile>
